# xmcd
#
# Track frame offsets: 
#        150
#        19762
#        35277
#        58562
#        68942
#        76025
#        95947
#        106382
#        123425
#        136867
#        148417
#        165680
#        174270
#        191877
#        202922
#        246100
#
# Disc length: 3425 seconds
#
# Revision: 3
# Processed by: cddbd v1.5.2PL0 Copyright (c) Steve Scherf et al.
# Submitted via: ExactAudioCopyFreeDBPlugin 1.0
#
DISCID=df0d5f10
DTITLE=Björk - Les Inrockuptibles: Live and Interview
DYEAR=2002
DGENRE=Pop
TTITLE0=Human Behaviour (Live At The Royal Opera House, London)
TTITLE1=Play Dead (Live With The Brodsky Quartet At The Union Chapel, 
TTITLE1=London)
TTITLE2=It's In Our Hands (Live At The Royal Opera House, London)
TTITLE3=Interview with David Topp - Hits Et Singles
TTITLE4=Interview with David Topp - A La Découverte De Marvin Gaye
TTITLE5=Interview with David Topp - La Saga Islandaise
TTITLE6=Interview with David Topp - De 'Debut' à 'Homogenic'
TTITLE7=Interview with David Topp - Une Collection D'émotions
TTITLE8=Interview with David Topp - De L'immaturité à 'Vespertine'
TTITLE9=Interview with David Topp - Les Collaborateurs
TTITLE10=Interview with David Topp - Nellee Hooper Et Londres
TTITLE11=Interview with David Topp - Le Travail Avec Guy Sigsworth
TTITLE12=Interview with David Topp - Le Travail Avec Matmos
TTITLE13=Interview with David Topp - Le Travail Avec Mark Bell
TTITLE14=Interview with David Topp - Le Projet Family Tree
TTITLE15=Interview with David Topp - Un Nouveau Départ
EXTD=YEAR: 2002
EXTT0=
EXTT1=
EXTT2=
EXTT3=
EXTT4=
EXTT5=
EXTT6=
EXTT7=
EXTT8=
EXTT9=
EXTT10=
EXTT11=
EXTT12=
EXTT13=
EXTT14=
EXTT15=
PLAYORDER=
